<svg xmlns="http://www.w3.org/2000/svg" viewBox="0 0 141 24" fill="#6b7280">
  <path d="M31.5 4.5h4.2v15.4h-4.2zM37.1 12.8c0-4.5 3.2-7.5 7.4-7.5 2.8 0 4.6 1.3 5.7 2.9l-2.9 2.1c-.7-.9-1.6-1.5-2.8-1.5-2 0-3.4 1.5-3.4 4s1.4 4 3.4 4c1.2 0 2.1-.6 2.8-1.5l2.9 2.1c-1.1 1.6-2.9 2.9-5.7 2.9-4.2 0-7.4-3-7.4-7.5zM51.8 12.8c0-4.4 3.2-7.5 7.7-7.5s7.7 3.1 7.7 7.5-3.2 7.5-7.7 7.5-7.7-3.1-7.7-7.5zm11.3 0c0-2.4-1.5-4-3.6-4s-3.6 1.6-3.6 4 1.5 4 3.6 4 3.6-1.6 3.6-4zM69.3 5.7h4.2v2.4c.8-1.6 2.3-2.7 4.3-2.7.5 0 .9.1 1.3.2l-.1 3.9c-.4-.2-1-.3-1.6-.3-2.4 0-3.9 1.5-3.9 4.5v6.3h-4.2V5.7zM80.7 12.8c0-4.4 3.2-7.5 7.7-7.5s7.7 3.1 7.7 7.5-3.2 7.5-7.7 7.5-7.7-3.1-7.7-7.5zm11.3 0c0-2.4-1.5-4-3.6-4s-3.6 1.6-3.6 4 1.5 4 3.6 4 3.6-1.6 3.6-4zM98.2 5.7h4.2v2.4c.8-1.6 2.3-2.7 4.3-2.7.5 0 .9.1 1.3.2l-.1 3.9c-.4-.2-1-.3-1.6-.3-2.4 0-3.9 1.5-3.9 4.5v6.3h-4.2V5.7zM109.6 12.8c0-4.4 3.2-7.5 7.7-7.5s7.7 3.1 7.7 7.5-3.2 7.5-7.7 7.5-7.7-3.1-7.7-7.5zm11.3 0c0-2.4-1.5-4-3.6-4s-3.6 1.6-3.6 4 1.5 4 3.6 4 3.6-1.6 3.6-4zM127.1 5.7h4.2v2.4c.8-1.6 2.3-2.7 4.3-2.7.5 0 .9.1 1.3.2l-.1 3.9c-.4-.2-1-.3-1.6-.3-2.4 0-3.9 1.5-3.9 4.5v6.3h-4.2V5.7z"/>
  <path d="M0 0h24v24H0z" fill="none"/>
  <path d="M12 2C6.48 2 2 6.48 2 12s4.48 10 10 10 10-4.48 10-10S17.52 2 12 2zm0 18c-4.41 0-8-3.59-8-8s3.59-8 8-8 8 3.59 8 8-3.59 8-8 8zm-1-13h2v6h-2zm0 8h2v2h-2z"/>
</svg> 